<svg xmlns="http://www.w3.org/2000/svg" width="8" height="8" viewBox="0 0 8 8" fill="none">
  <g clip-path="url(#clip0_0_163)">
    <path d="M3.9753 2.1437C3.04963 2.1437 2.30299 2.8865 2.30299 3.80739C2.30299 4.72828 3.04963 5.47108 3.9753 5.47108C4.90096 5.47108 5.6476 4.72828 5.6476 3.80739C5.6476 2.8865 4.90096 2.1437 3.9753 2.1437ZM3.9753 4.88901C3.37711 4.88901 2.88808 4.40394 2.88808 3.80739C2.88808 3.21084 3.37565 2.72578 3.9753 2.72578C4.57494 2.72578 5.06251 3.21084 5.06251 3.80739C5.06251 4.40394 4.57348 4.88901 3.9753 4.88901ZM6.10606 2.07565C6.10606 2.29139 5.93141 2.4637 5.71601 2.4637C5.49914 2.4637 5.32595 2.28995 5.32595 2.07565C5.32595 1.86136 5.5006 1.6876 5.71601 1.6876C5.93141 1.6876 6.10606 1.86136 6.10606 2.07565ZM7.21366 2.46949C7.18891 1.94968 7.06957 1.48923 6.68679 1.10987C6.30546 0.730511 5.84263 0.61178 5.32013 0.585717C4.78161 0.55531 3.16752 0.55531 2.62901 0.585717C2.10796 0.610332 1.64513 0.729063 1.26235 1.10842C0.879567 1.48779 0.761676 1.94823 0.735478 2.46804C0.704914 3.00378 0.704914 4.60955 0.735478 5.14529C0.760221 5.6651 0.879567 6.12555 1.26235 6.50491C1.64513 6.88427 2.10651 7.003 2.62901 7.02907C3.16752 7.05947 4.78161 7.05947 5.32013 7.02907C5.84263 7.00445 6.30546 6.88572 6.68679 6.50491C7.06811 6.12555 7.18746 5.6651 7.21366 5.14529C7.24422 4.60955 7.24422 3.00523 7.21366 2.46949ZM6.51795 5.72012C6.40443 6.00392 6.18466 6.22256 5.89794 6.33695C5.46858 6.50636 4.44977 6.46726 3.9753 6.46726C3.50082 6.46726 2.48055 6.50491 2.05265 6.33695C1.76739 6.22401 1.54762 6.00537 1.43264 5.72012C1.26235 5.29298 1.30165 4.27942 1.30165 3.80739C1.30165 3.33536 1.2638 2.32035 1.43264 1.89466C1.54616 1.61086 1.76593 1.39222 2.05265 1.27783C2.48201 1.10842 3.50082 1.14752 3.9753 1.14752C4.44977 1.14752 5.47004 1.10987 5.89794 1.27783C6.1832 1.39077 6.40297 1.60941 6.51795 1.89466C6.68824 2.3218 6.64894 3.33536 6.64894 3.80739C6.64894 4.27942 6.68824 5.29443 6.51795 5.72012Z" fill="white"/>
  </g>
  <defs>
    <clipPath id="clip0_0_163">
      <rect width="6.58976" height="7.41348" fill="white" transform="translate(0.731049 0.101898)"/>
    </clipPath>
  </defs>
</svg>