<svg xmlns="http://www.w3.org/2000/svg" width="8" height="7" viewBox="0 0 8 7" fill="none">
  <g clip-path="url(#clip0_0_158)">
    <path d="M2.42487 6.69154V2.52332H1.02694V6.69154H2.42487ZM1.72608 1.95388C2.21357 1.95388 2.517 1.63381 2.517 1.23383C2.50792 0.824828 2.21358 0.513641 1.73533 0.513641C1.25716 0.513641 0.944458 0.824834 0.944458 1.23383C0.944458 1.63383 1.24782 1.95388 1.71696 1.95388H1.72604H1.72608ZM3.19862 6.69154H4.59655V4.36381C4.59655 4.23923 4.60563 4.11478 4.64255 4.02573C4.74361 3.77682 4.97362 3.51903 5.35979 3.51903C5.86564 3.51903 6.06801 3.90127 6.06801 4.46161V6.69151H7.46586V4.30149C7.46586 3.02118 6.77619 2.42547 5.85644 2.42547C5.10231 2.42547 4.7712 2.84323 4.58725 3.12776H4.59658V2.52324H3.19865C3.21699 2.91436 3.19865 6.69146 3.19865 6.69146L3.19862 6.69154Z" fill="white"/>
  </g>
  <defs>
    <clipPath id="clip0_0_158">
      <rect width="6.58976" height="6.1779" fill="white" transform="translate(0.961731 0.513901)"/>
    </clipPath>
  </defs>
</svg>