<svg xmlns="http://www.w3.org/2000/svg" width="9" height="7" viewBox="0 0 9 7" fill="none">
  <g clip-path="url(#clip0_0_153)">
    <path d="M8.10314 1.62814C7.82845 1.7453 7.5371 1.82221 7.23876 1.8563C7.54951 1.67697 7.78812 1.393 7.90047 1.05465C7.60506 1.22344 7.28186 1.34236 6.94483 1.40627C6.67029 1.12467 6.27919 0.948685 5.84632 0.948685C5.01518 0.948685 4.34132 1.59746 4.34132 2.39764C4.34132 2.51122 4.35464 2.6218 4.38029 2.72788C3.12954 2.66743 2.02063 2.09058 1.27834 1.21392C1.14883 1.42793 1.07461 1.67686 1.07461 1.94237C1.07461 2.44509 1.34032 2.88858 1.74412 3.14844C1.50513 3.14123 1.2714 3.07909 1.06244 2.96718C1.06235 2.97325 1.06235 2.97932 1.06235 2.98542C1.06235 3.68747 1.5811 4.27312 2.26955 4.40624C2.04793 4.46427 1.81547 4.47276 1.58993 4.43107C1.78142 5.00673 2.33723 5.42564 2.99575 5.43736C2.4807 5.82598 1.83177 6.05764 1.12671 6.05764C1.00521 6.05764 0.88544 6.05077 0.7677 6.03739C1.43371 6.44852 2.22476 6.6884 3.07464 6.6884C5.84282 6.6884 7.35653 4.48045 7.35653 2.56568C7.35653 2.50284 7.3551 2.44035 7.35217 2.37822C7.6468 2.17315 7.9011 1.91915 8.10314 1.62814Z" fill="white"/>
  </g>
  <defs>
    <clipPath id="clip0_0_153">
      <rect width="7.41348" height="5.76604" fill="white" transform="translate(0.78067 0.925903)"/>
    </clipPath>
  </defs>
</svg>